<?xml version="1.0" encoding="UTF-8"?>
<score-partwise version="4.0">
  <work>
    <work-title>Canon in D - MusicXML Test Excerpt</work-title>
  </work>
  <identification>
    <creator type="composer">Johann Pachelbel</creator>
    <rights>Test MusicXML excerpt for AI music revision. Based on the public-domain composition and the MutopiaProject Canon in D LilyPond source licensed under Creative Commons Attribution 3.0.</rights>
  </identification>
  <part-list>
    <score-part id="P1">
      <part-name>Violin Melody</part-name>
      <score-instrument id="P1-I1">
        <instrument-name>Violin</instrument-name>
      </score-instrument>
      <midi-instrument id="P1-I1">
        <midi-channel>1</midi-channel>
        <midi-program>41</midi-program>
      </midi-instrument>
    </score-part>
    <score-part id="P2">
      <part-name>Continuo Bass</part-name>
      <score-instrument id="P2-I1">
        <instrument-name>Cello</instrument-name>
      </score-instrument>
      <midi-instrument id="P2-I1">
        <midi-channel>2</midi-channel>
        <midi-program>43</midi-program>
      </midi-instrument>
    </score-part>
  </part-list>
  <part id="P1">
    <measure number="1">
      <attributes>
        <divisions>4</divisions>
        <key><fifths>2</fifths></key>
        <time><beats>4</beats><beat-type>4</beat-type></time>
        <clef><sign>G</sign><line>2</line></clef>
      </attributes>
      <direction placement="above">
        <direction-type>
          <metronome><beat-unit>quarter</beat-unit><per-minute>96</per-minute></metronome>
        </direction-type>
        <sound tempo="96"/>
      </direction>
      <harmony><root><root-step>D</root-step></root><kind>major</kind></harmony>
      <note><pitch><step>D</step><octave>5</octave></pitch><duration>8</duration><voice>1</voice><type>half</type></note>
      <harmony><root><root-step>A</root-step></root><kind>major</kind></harmony>
      <note><pitch><step>C</step><alter>1</alter><octave>5</octave></pitch><duration>8</duration><voice>1</voice><type>half</type></note>
    </measure>
    <measure number="2">
      <harmony><root><root-step>B</root-step></root><kind>minor</kind></harmony>
      <note><pitch><step>B</step><octave>4</octave></pitch><duration>8</duration><voice>1</voice><type>half</type></note>
      <harmony><root><root-step>F</root-step><root-alter>1</root-alter></root><kind>minor</kind></harmony>
      <note><pitch><step>A</step><octave>4</octave></pitch><duration>8</duration><voice>1</voice><type>half</type></note>
    </measure>
    <measure number="3">
      <harmony><root><root-step>G</root-step></root><kind>major</kind></harmony>
      <note><pitch><step>G</step><octave>4</octave></pitch><duration>8</duration><voice>1</voice><type>half</type></note>
      <harmony><root><root-step>D</root-step></root><kind>major</kind></harmony>
      <note><pitch><step>F</step><alter>1</alter><octave>4</octave></pitch><duration>8</duration><voice>1</voice><type>half</type></note>
    </measure>
    <measure number="4">
      <harmony><root><root-step>G</root-step></root><kind>major</kind></harmony>
      <note><pitch><step>G</step><octave>4</octave></pitch><duration>8</duration><voice>1</voice><type>half</type></note>
      <harmony><root><root-step>A</root-step></root><kind>major</kind></harmony>
      <note><pitch><step>B</step><octave>4</octave></pitch><duration>8</duration><voice>1</voice><type>half</type></note>
    </measure>
    <measure number="5">
      <harmony><root><root-step>D</root-step></root><kind>major</kind></harmony>
      <note><pitch><step>F</step><alter>1</alter><octave>4</octave></pitch><duration>8</duration><voice>1</voice><type>half</type></note>
      <harmony><root><root-step>A</root-step></root><kind>major</kind></harmony>
      <note><pitch><step>A</step><octave>4</octave></pitch><duration>8</duration><voice>1</voice><type>half</type></note>
    </measure>
    <measure number="6">
      <harmony><root><root-step>B</root-step></root><kind>minor</kind></harmony>
      <note><pitch><step>D</step><octave>5</octave></pitch><duration>8</duration><voice>1</voice><type>half</type></note>
      <harmony><root><root-step>F</root-step><root-alter>1</root-alter></root><kind>minor</kind></harmony>
      <note><pitch><step>F</step><alter>1</alter><octave>5</octave></pitch><duration>8</duration><voice>1</voice><type>half</type></note>
    </measure>
    <measure number="7">
      <harmony><root><root-step>G</root-step></root><kind>major</kind></harmony>
      <note><pitch><step>B</step><octave>5</octave></pitch><duration>8</duration><voice>1</voice><type>half</type></note>
      <harmony><root><root-step>D</root-step></root><kind>major</kind></harmony>
      <note><pitch><step>D</step><octave>6</octave></pitch><duration>8</duration><voice>1</voice><type>half</type></note>
    </measure>
    <measure number="8">
      <harmony><root><root-step>G</root-step></root><kind>major</kind></harmony>
      <note><pitch><step>B</step><octave>5</octave></pitch><duration>8</duration><voice>1</voice><type>half</type></note>
      <harmony><root><root-step>A</root-step></root><kind>major</kind></harmony>
      <note><pitch><step>C</step><alter>1</alter><octave>6</octave></pitch><duration>8</duration><voice>1</voice><type>half</type></note>
    </measure>
    <measure number="9">
      <harmony><root><root-step>D</root-step></root><kind>major</kind></harmony>
      <note><pitch><step>D</step><octave>6</octave></pitch><duration>2</duration><voice>1</voice><type>eighth</type></note>
      <note><pitch><step>C</step><alter>1</alter><octave>6</octave></pitch><duration>2</duration><voice>1</voice><type>eighth</type></note>
      <note><pitch><step>D</step><octave>6</octave></pitch><duration>2</duration><voice>1</voice><type>eighth</type></note>
      <note><pitch><step>D</step><octave>5</octave></pitch><duration>2</duration><voice>1</voice><type>eighth</type></note>
      <harmony><root><root-step>A</root-step></root><kind>major</kind></harmony>
      <note><pitch><step>C</step><alter>1</alter><octave>5</octave></pitch><duration>2</duration><voice>1</voice><type>eighth</type></note>
      <note><pitch><step>A</step><octave>5</octave></pitch><duration>2</duration><voice>1</voice><type>eighth</type></note>
      <note><pitch><step>E</step><octave>5</octave></pitch><duration>2</duration><voice>1</voice><type>eighth</type></note>
      <note><pitch><step>F</step><alter>1</alter><octave>5</octave></pitch><duration>2</duration><voice>1</voice><type>eighth</type></note>
    </measure>
    <measure number="10">
      <harmony><root><root-step>B</root-step></root><kind>minor</kind></harmony>
      <note><pitch><step>D</step><octave>5</octave></pitch><duration>2</duration><voice>1</voice><type>eighth</type></note>
      <note><pitch><step>D</step><octave>6</octave></pitch><duration>2</duration><voice>1</voice><type>eighth</type></note>
      <note><pitch><step>C</step><alter>1</alter><octave>6</octave></pitch><duration>2</duration><voice>1</voice><type>eighth</type></note>
      <note><pitch><step>B</step><octave>5</octave></pitch><duration>2</duration><voice>1</voice><type>eighth</type></note>
      <harmony><root><root-step>F</root-step><root-alter>1</root-alter></root><kind>minor</kind></harmony>
      <note><pitch><step>C</step><alter>1</alter><octave>6</octave></pitch><duration>2</duration><voice>1</voice><type>eighth</type></note>
      <note><pitch><step>F</step><alter>1</alter><octave>5</octave></pitch><duration>2</duration><voice>1</voice><type>eighth</type></note>
      <note><pitch><step>A</step><octave>5</octave></pitch><duration>2</duration><voice>1</voice><type>eighth</type></note>
      <note><pitch><step>B</step><octave>5</octave></pitch><duration>2</duration><voice>1</voice><type>eighth</type></note>
    </measure>
    <measure number="11">
      <harmony><root><root-step>G</root-step></root><kind>major</kind></harmony>
      <note><pitch><step>G</step><octave>5</octave></pitch><duration>2</duration><voice>1</voice><type>eighth</type></note>
      <note><pitch><step>F</step><alter>1</alter><octave>5</octave></pitch><duration>2</duration><voice>1</voice><type>eighth</type></note>
      <note><pitch><step>E</step><octave>5</octave></pitch><duration>2</duration><voice>1</voice><type>eighth</type></note>
      <note><pitch><step>G</step><octave>5</octave></pitch><duration>2</duration><voice>1</voice><type>eighth</type></note>
      <harmony><root><root-step>D</root-step></root><kind>major</kind></harmony>
      <note><pitch><step>F</step><alter>1</alter><octave>5</octave></pitch><duration>2</duration><voice>1</voice><type>eighth</type></note>
      <note><pitch><step>E</step><octave>5</octave></pitch><duration>2</duration><voice>1</voice><type>eighth</type></note>
      <note><pitch><step>D</step><octave>5</octave></pitch><duration>2</duration><voice>1</voice><type>eighth</type></note>
      <note><pitch><step>C</step><alter>1</alter><octave>6</octave></pitch><duration>2</duration><voice>1</voice><type>eighth</type></note>
    </measure>
    <measure number="12">
      <harmony><root><root-step>G</root-step></root><kind>major</kind></harmony>
      <note><pitch><step>B</step><octave>5</octave></pitch><duration>2</duration><voice>1</voice><type>eighth</type></note>
      <note><pitch><step>A</step><octave>5</octave></pitch><duration>2</duration><voice>1</voice><type>eighth</type></note>
      <note><pitch><step>G</step><octave>5</octave></pitch><duration>2</duration><voice>1</voice><type>eighth</type></note>
      <note><pitch><step>F</step><alter>1</alter><octave>5</octave></pitch><duration>2</duration><voice>1</voice><type>eighth</type></note>
      <harmony><root><root-step>A</root-step></root><kind>major</kind></harmony>
      <note><pitch><step>E</step><octave>5</octave></pitch><duration>2</duration><voice>1</voice><type>eighth</type></note>
      <note><pitch><step>G</step><octave>5</octave></pitch><duration>2</duration><voice>1</voice><type>eighth</type></note>
      <note><pitch><step>F</step><alter>1</alter><octave>5</octave></pitch><duration>2</duration><voice>1</voice><type>eighth</type></note>
      <note><pitch><step>E</step><octave>5</octave></pitch><duration>2</duration><voice>1</voice><type>eighth</type></note>
    </measure>
  </part>
  <part id="P2">
    <measure number="1">
      <attributes>
        <divisions>4</divisions>
        <key><fifths>2</fifths></key>
        <time><beats>4</beats><beat-type>4</beat-type></time>
        <clef><sign>F</sign><line>4</line></clef>
      </attributes>
      <note><pitch><step>D</step><octave>3</octave></pitch><duration>8</duration><voice>1</voice><type>half</type></note>
      <note><pitch><step>A</step><octave>2</octave></pitch><duration>8</duration><voice>1</voice><type>half</type></note>
    </measure>
    <measure number="2">
      <note><pitch><step>B</step><octave>2</octave></pitch><duration>8</duration><voice>1</voice><type>half</type></note>
      <note><pitch><step>F</step><alter>1</alter><octave>2</octave></pitch><duration>8</duration><voice>1</voice><type>half</type></note>
    </measure>
    <measure number="3">
      <note><pitch><step>G</step><octave>2</octave></pitch><duration>8</duration><voice>1</voice><type>half</type></note>
      <note><pitch><step>D</step><octave>3</octave></pitch><duration>8</duration><voice>1</voice><type>half</type></note>
    </measure>
    <measure number="4">
      <note><pitch><step>G</step><octave>2</octave></pitch><duration>8</duration><voice>1</voice><type>half</type></note>
      <note><pitch><step>A</step><octave>2</octave></pitch><duration>8</duration><voice>1</voice><type>half</type></note>
    </measure>
    <measure number="5">
      <note><pitch><step>D</step><octave>3</octave></pitch><duration>8</duration><voice>1</voice><type>half</type></note>
      <note><pitch><step>A</step><octave>2</octave></pitch><duration>8</duration><voice>1</voice><type>half</type></note>
    </measure>
    <measure number="6">
      <note><pitch><step>B</step><octave>2</octave></pitch><duration>8</duration><voice>1</voice><type>half</type></note>
      <note><pitch><step>F</step><alter>1</alter><octave>2</octave></pitch><duration>8</duration><voice>1</voice><type>half</type></note>
    </measure>
    <measure number="7">
      <note><pitch><step>G</step><octave>2</octave></pitch><duration>8</duration><voice>1</voice><type>half</type></note>
      <note><pitch><step>D</step><octave>3</octave></pitch><duration>8</duration><voice>1</voice><type>half</type></note>
    </measure>
    <measure number="8">
      <note><pitch><step>G</step><octave>2</octave></pitch><duration>8</duration><voice>1</voice><type>half</type></note>
      <note><pitch><step>A</step><octave>2</octave></pitch><duration>8</duration><voice>1</voice><type>half</type></note>
    </measure>
    <measure number="9">
      <note><pitch><step>D</step><octave>3</octave></pitch><duration>8</duration><voice>1</voice><type>half</type></note>
      <note><pitch><step>A</step><octave>2</octave></pitch><duration>8</duration><voice>1</voice><type>half</type></note>
    </measure>
    <measure number="10">
      <note><pitch><step>B</step><octave>2</octave></pitch><duration>8</duration><voice>1</voice><type>half</type></note>
      <note><pitch><step>F</step><alter>1</alter><octave>2</octave></pitch><duration>8</duration><voice>1</voice><type>half</type></note>
    </measure>
    <measure number="11">
      <note><pitch><step>G</step><octave>2</octave></pitch><duration>8</duration><voice>1</voice><type>half</type></note>
      <note><pitch><step>D</step><octave>3</octave></pitch><duration>8</duration><voice>1</voice><type>half</type></note>
    </measure>
    <measure number="12">
      <note><pitch><step>G</step><octave>2</octave></pitch><duration>8</duration><voice>1</voice><type>half</type></note>
      <note><pitch><step>A</step><octave>2</octave></pitch><duration>8</duration><voice>1</voice><type>half</type></note>
    </measure>
  </part>
</score-partwise>
